<svg width="160" height="47" viewBox="0 0 160 47" fill="none" xmlns="http://www.w3.org/2000/svg">
<path d="M154.074 47H5.92593C2.66667 47 0 44.3562 0 41.125V5.875C0 2.64375 2.66667 0 5.92593 0H154.074C157.333 0 160 2.64375 160 5.875V41.125C160 44.3562 157.333 47 154.074 47Z" fill="black"/>
<path d="M154.074 0.94C156.824 0.94 159.052 3.149 159.052 5.875V41.125C159.052 43.851 156.824 46.06 154.074 46.06H5.92593C3.1763 46.06 0.948148 43.851 0.948148 41.125V5.875C0.948148 3.149 3.1763 0.94 5.92593 0.94H154.074ZM154.074 0H5.92593C2.66667 0 0 2.64375 0 5.875V41.125C0 44.3562 2.66667 47 5.92593 47H154.074C157.333 47 160 44.3562 160 41.125V5.875C160 2.64375 157.333 0 154.074 0Z" fill="#A6A6A6"/>
<path d="M80.7578 25.5572C77.9726 25.5572 75.6971 27.6604 75.6971 30.5509C75.6971 33.4297 77.9726 35.5447 80.7578 35.5447C83.543 35.5447 85.8186 33.4297 85.8186 30.5509C85.8186 27.6604 83.543 25.5572 80.7578 25.5572ZM80.7578 33.5824C79.2289 33.5824 77.9134 32.3369 77.9134 30.5509C77.9134 28.7532 79.2289 27.5194 80.7578 27.5194C82.2867 27.5194 83.6023 28.7532 83.6023 30.5509C83.6023 32.3369 82.2749 33.5824 80.7578 33.5824ZM69.7119 25.5572C66.9267 25.5572 64.6511 27.6604 64.6511 30.5509C64.6511 33.4297 66.9267 35.5447 69.7119 35.5447C72.4971 35.5447 74.7726 33.4297 74.7726 30.5509C74.7726 27.6604 72.4971 25.5572 69.7119 25.5572ZM69.7119 33.5824C68.183 33.5824 66.8674 32.3369 66.8674 30.5509C66.8674 28.7532 68.183 27.5194 69.7119 27.5194C71.2408 27.5194 72.5563 28.7532 72.5563 30.5509C72.5563 32.3369 71.2408 33.5824 69.7119 33.5824ZM56.58 27.0964V29.2114H61.7C61.546 30.3982 61.143 31.2794 60.5386 31.8787C59.7919 32.6189 58.6304 33.4297 56.5919 33.4297C53.4393 33.4297 50.9741 30.9152 50.9741 27.7897C50.9741 24.6642 53.4393 22.1497 56.5919 22.1497C58.2867 22.1497 59.5311 22.8077 60.4437 23.6654L61.9489 22.1732C60.6689 20.9629 58.9741 20.0347 56.58 20.0347C52.266 20.0347 48.6393 23.5127 48.6393 27.8014C48.6393 32.0784 52.266 35.5682 56.58 35.5682C58.9149 35.5682 60.6689 34.8162 62.0437 33.3944C63.4541 31.9962 63.8926 30.0222 63.8926 28.4359C63.8926 27.9424 63.8571 27.4842 63.7741 27.1082H56.58V27.0964ZM110.281 28.7414C109.866 27.6252 108.586 25.5572 105.967 25.5572C103.371 25.5572 101.214 27.5782 101.214 30.5509C101.214 33.3474 103.347 35.5447 106.216 35.5447C108.527 35.5447 109.866 34.1464 110.411 33.3357L108.693 32.1959C108.124 33.0302 107.342 33.5824 106.216 33.5824C105.09 33.5824 104.284 33.0654 103.774 32.0667L110.518 29.3054L110.281 28.7414ZM103.407 30.4099C103.347 28.4829 104.912 27.4959 106.038 27.4959C106.915 27.4959 107.662 27.9307 107.91 28.5534L103.407 30.4099ZM97.9311 35.2509H100.147V20.5634H97.9311V35.2509ZM94.3045 26.6734H94.2215C93.7237 26.0859 92.7756 25.5572 91.5667 25.5572C89.0423 25.5572 86.7311 27.7544 86.7311 30.5744C86.7311 33.3709 89.0423 35.5564 91.5667 35.5564C92.7637 35.5564 93.7237 35.0277 94.2215 34.4167H94.2926V35.1334C94.2926 37.0487 93.2615 38.0709 91.6023 38.0709C90.2511 38.0709 89.4097 37.1074 89.066 36.2967L87.1341 37.0957C87.6911 38.4234 89.1608 40.0449 91.6023 40.0449C94.1978 40.0449 96.3904 38.5292 96.3904 34.8397V25.8627H94.2926V26.6734H94.3045ZM91.7563 33.5824C90.2274 33.5824 88.9474 32.3134 88.9474 30.5744C88.9474 28.8119 90.2274 27.5312 91.7563 27.5312C93.2615 27.5312 94.4467 28.8237 94.4467 30.5744C94.4586 32.3134 93.2734 33.5824 91.7563 33.5824ZM120.663 20.5634H115.365V35.2509H117.582V29.6814H120.675C123.128 29.6814 125.534 27.9189 125.534 25.1224C125.534 22.3259 123.104 20.5634 120.663 20.5634ZM120.71 27.6369H117.57V22.5962H120.71C122.37 22.5962 123.306 23.9592 123.306 25.1107C123.306 26.2622 122.37 27.6369 120.71 27.6369ZM134.387 25.5337C132.787 25.5337 131.128 26.2387 130.441 27.7779L132.408 28.5887C132.823 27.7779 133.605 27.5077 134.423 27.5077C135.573 27.5077 136.734 28.1892 136.746 29.3994V29.5522C136.343 29.3289 135.49 28.9882 134.435 28.9882C132.313 28.9882 130.168 30.1397 130.168 32.2899C130.168 34.2522 131.899 35.5212 133.842 35.5212C135.324 35.5212 136.153 34.8632 136.663 34.0877H136.734V35.2274H138.867V29.5992C138.879 26.9907 136.912 25.5337 134.387 25.5337ZM134.115 33.5824C133.392 33.5824 132.384 33.2182 132.384 32.3369C132.384 31.2089 133.641 30.7742 134.731 30.7742C135.703 30.7742 136.165 30.9857 136.746 31.2677C136.58 32.6189 135.395 33.5824 134.115 33.5824ZM146.654 25.8509L144.118 32.2194H144.047L141.416 25.8509H139.033L142.98 34.7574L140.728 39.7042H143.039L149.119 25.8509H146.654ZM126.743 35.2509H128.959V20.5634H126.743V35.2509Z" fill="white"/>
<path d="M12.3738 8.85862C12.0301 9.22287 11.8286 9.78687 11.8286 10.5036V36.4946C11.8286 37.2231 12.0301 37.7871 12.3738 38.1396L12.4568 38.2219L27.1412 23.6754V23.4991V23.3229L12.4568 8.77637L12.3738 8.85862Z" fill="url(#paint0_linear)"/>
<path d="M32.0344 28.5287L27.1396 23.6759V23.4997V23.3234L32.0344 18.4707L32.1411 18.5295L37.9366 21.7959C39.5959 22.7242 39.5959 24.2517 37.9366 25.1917L32.1411 28.4582L32.0344 28.5287Z" fill="url(#paint1_linear)"/>
<path d="M32.1401 28.4673L27.1386 23.4971L12.3712 38.1376C12.9164 38.7133 13.8171 38.7838 14.8364 38.2081L32.1401 28.4673Z" fill="url(#paint2_linear)"/>
<path d="M32.1418 18.5403L14.8262 8.78783C13.8069 8.21208 12.9062 8.28258 12.361 8.85833L27.1403 23.4988L32.1418 18.5403Z" fill="url(#paint3_linear)"/>
<path opacity="0.2" d="M32.0367 28.3521L14.8278 38.0458C13.8678 38.5863 13.0026 38.551 12.4574 38.0575L12.3745 38.1398L12.4574 38.222C13.0145 38.7155 13.8678 38.7508 14.8278 38.2103L32.1433 28.4578L32.0367 28.3521Z" fill="black"/>
<path opacity="0.12" d="M12.3738 37.9765C12.0301 37.6123 11.8286 37.0483 11.8286 36.3315V36.5078C11.8286 37.2363 12.0301 37.8003 12.3738 38.1528L12.4568 38.0705L12.3738 37.9765Z" fill="black"/>
<path opacity="0.12" d="M37.9375 25.0246L32.0234 28.3498L32.1301 28.4556L37.9256 25.1891C38.7553 24.7191 39.1701 24.1081 39.1701 23.4971C39.1108 24.0493 38.696 24.6016 37.9375 25.0246Z" fill="black"/>
<path opacity="0.25" d="M14.8256 8.95288L37.9367 21.9719C38.6834 22.3949 39.11 22.9354 39.1811 23.4994C39.1811 22.8884 38.7663 22.2656 37.9367 21.8074L14.8256 8.78838C13.1663 7.86013 11.8152 8.63563 11.8152 10.5156V10.6919C11.8152 8.80013 13.1782 8.02463 14.8256 8.95288Z" fill="white"/>
<path d="M49.9092 16.7649H49.0321V14.4032H49.7314C50.3477 13.8744 50.644 12.9814 50.6321 11.7007V8.22266H55.3847V14.4032H56.1788V16.7649H55.3017V15.2727H49.9092V16.7649ZM51.5566 11.7124C51.5684 12.8287 51.3432 13.7217 50.881 14.4149H54.4721V9.09216H51.5566V11.7124Z" fill="white" stroke="white" stroke-width="0.2" stroke-miterlimit="10"/>
<path d="M63.3032 14.358C62.6039 15.0748 61.7388 15.4273 60.6958 15.4273C59.6528 15.4273 58.7876 15.0748 58.0884 14.358C57.3891 13.6413 57.0454 12.7718 57.0454 11.7495C57.0454 10.7273 57.3891 9.84603 58.0884 9.14103C58.7876 8.42428 59.6528 8.07178 60.6958 8.07178C61.7269 8.07178 62.5921 8.42428 63.3032 9.14103C64.0025 9.85778 64.358 10.7273 64.358 11.7495C64.358 12.7835 64.0025 13.653 63.3032 14.358ZM58.7639 13.7705C59.2854 14.2993 59.9373 14.5578 60.6958 14.5578C61.4543 14.5578 62.1062 14.2993 62.6277 13.7705C63.1491 13.2418 63.4217 12.572 63.4217 11.7495C63.4217 10.927 63.161 10.2573 62.6277 9.72853C62.1062 9.19978 61.4662 8.92953 60.6958 8.92953C59.9373 8.92953 59.2854 9.18803 58.7639 9.71678C58.2425 10.2573 57.9817 10.927 57.9817 11.7495C57.9817 12.572 58.2425 13.2418 58.7639 13.7705Z" fill="white" stroke="white" stroke-width="0.2" stroke-miterlimit="10"/>
<path d="M68.9565 15.4278C67.9135 15.4278 67.0365 15.0753 66.3253 14.3703C65.6142 13.6653 65.2587 12.7958 65.2587 11.7383C65.2587 10.6926 65.6142 9.81133 66.3253 9.10633C67.0365 8.40133 67.9135 8.04883 68.9565 8.04883C70.0231 8.04883 70.9002 8.43658 71.5639 9.20033L70.9239 9.81133C70.4379 9.21208 69.7861 8.91833 68.9446 8.91833C68.1742 8.91833 67.5105 9.17683 66.9772 9.69383C66.4439 10.2108 66.1831 10.8923 66.1831 11.7266C66.1831 12.5608 66.4439 13.2423 66.9772 13.7593C67.5105 14.2763 68.1624 14.5348 68.9446 14.5348C69.7979 14.5348 70.5209 14.1941 71.1253 13.5126L71.7653 14.1471C71.4453 14.5348 71.0305 14.8403 70.5446 15.0636C70.0587 15.3221 69.5253 15.4278 68.9565 15.4278Z" fill="white" stroke="white" stroke-width="0.2" stroke-miterlimit="10"/>
<path d="M75.4729 15.2727H74.5603V9.09216H72.5692V8.22266H77.4522V9.09216H75.4611V15.2727H75.4729Z" fill="white" stroke="white" stroke-width="0.2" stroke-miterlimit="10"/>
<path d="M83.7343 8.22266L81.0439 14.1682C80.6765 15.0024 80.1194 15.4254 79.3846 15.4254C79.1713 15.4254 78.9343 15.3784 78.6735 15.2727L78.9106 14.4384C79.0646 14.5207 79.2187 14.5677 79.3846 14.5677C79.598 14.5677 79.7639 14.5324 79.8824 14.4502C80.0009 14.3679 80.1076 14.2152 80.2024 14.0037L80.4631 13.4397L78.0691 8.22266H79.1476L80.9017 12.2647H80.9372L82.6557 8.22266H83.7343Z" fill="white" stroke="white" stroke-width="0.2" stroke-miterlimit="10"/>
<path d="M84.7641 15.2727V8.22266H89.9078V15.2727H88.9952V9.09216H85.6767V15.2727H84.7641Z" fill="white" stroke="white" stroke-width="0.2" stroke-miterlimit="10"/>
<path d="M91.5322 15.2727V8.22266H92.4448V11.2424H96.0003V8.22266H96.9129V15.2727H96.0003V12.0884H92.4448V15.2727H91.5322Z" fill="white" stroke="white" stroke-width="0.2" stroke-miterlimit="10"/>
<path d="M104.369 14.358C103.67 15.0748 102.804 15.4273 101.761 15.4273C100.718 15.4273 99.8532 15.0748 99.154 14.358C98.4547 13.6413 98.111 12.7718 98.111 11.7495C98.111 10.7273 98.4547 9.84603 99.154 9.14103C99.8532 8.42428 100.718 8.07178 101.761 8.07178C102.792 8.07178 103.658 8.42428 104.369 9.14103C105.068 9.85778 105.424 10.7273 105.424 11.7495C105.412 12.7835 105.068 13.653 104.369 14.358ZM99.8295 13.7705C100.351 14.2993 101.003 14.5578 101.761 14.5578C102.52 14.5578 103.172 14.2993 103.693 13.7705C104.215 13.2418 104.487 12.572 104.487 11.7495C104.487 10.927 104.227 10.2573 103.693 9.72853C103.16 9.19978 102.52 8.92953 101.761 8.92953C101.003 8.92953 100.351 9.18803 99.8295 9.71678C99.2962 10.2573 99.0354 10.927 99.0354 11.7495C99.0354 12.572 99.2962 13.2418 99.8295 13.7705Z" fill="white" stroke="white" stroke-width="0.2" stroke-miterlimit="10"/>
<path d="M109.144 15.2727V8.22266H111.716C112.273 8.22266 112.759 8.41066 113.161 8.76316C113.576 9.13916 113.778 9.59741 113.778 10.1379C113.778 10.4787 113.695 10.7724 113.517 11.0192C113.339 11.2777 113.114 11.4657 112.818 11.5949V11.6302C113.173 11.7477 113.458 11.9474 113.683 12.2412C113.908 12.5349 114.027 12.8639 114.027 13.2399C114.027 13.8157 113.813 14.2974 113.387 14.6734C112.948 15.0847 112.439 15.2727 111.858 15.2727H109.144ZM110.056 11.2424H111.716C112.059 11.2424 112.332 11.1249 112.545 10.9017C112.759 10.6784 112.853 10.4317 112.853 10.1614C112.853 9.89116 112.759 9.64441 112.545 9.42116C112.344 9.19791 112.083 9.08041 111.751 9.08041H110.056V11.2424ZM110.056 14.4032H111.893C112.249 14.4032 112.533 14.2857 112.747 14.0389C112.96 13.7922 113.079 13.5337 113.079 13.2399C113.079 12.9462 112.972 12.6877 112.735 12.4527C112.51 12.2177 112.213 12.0884 111.846 12.0884H110.044V14.4032H110.056Z" fill="white" stroke="white" stroke-width="0.2" stroke-miterlimit="10"/>
<defs>
<linearGradient id="paint0_linear" x1="25.8371" y1="10.2331" x2="6.11847" y2="30.1226" gradientUnits="userSpaceOnUse">
<stop stop-color="#00A0FF"/>
<stop offset="0.00657445" stop-color="#00A1FF"/>
<stop offset="0.2601" stop-color="#00BEFF"/>
<stop offset="0.5122" stop-color="#00D2FF"/>
<stop offset="0.7604" stop-color="#00DFFF"/>
<stop offset="1" stop-color="#00E3FF"/>
</linearGradient>
<linearGradient id="paint1_linear" x1="40.0988" y1="23.5015" x2="11.421" y2="23.5015" gradientUnits="userSpaceOnUse">
<stop stop-color="#FFE000"/>
<stop offset="0.4087" stop-color="#FFBD00"/>
<stop offset="0.7754" stop-color="#FFA500"/>
<stop offset="1" stop-color="#FF9C00"/>
</linearGradient>
<linearGradient id="paint2_linear" x1="29.4223" y1="26.1951" x2="2.68233" y2="53.1669" gradientUnits="userSpaceOnUse">
<stop stop-color="#FF3A44"/>
<stop offset="1" stop-color="#C31162"/>
</linearGradient>
<linearGradient id="paint3_linear" x1="8.64807" y1="0.20598" x2="20.5887" y2="12.25" gradientUnits="userSpaceOnUse">
<stop stop-color="#32A071"/>
<stop offset="0.0685" stop-color="#2DA771"/>
<stop offset="0.4762" stop-color="#15CF74"/>
<stop offset="0.8009" stop-color="#06E775"/>
<stop offset="1" stop-color="#00F076"/>
</linearGradient>
</defs>
</svg>
